<?xml version="1.0" standalone="no"?>
<!DOCTYPE svg PUBLIC "-//W3C//DTD SVG 1.1//EN" "http://www.w3.org/Graphics/SVG/1.1/DTD/svg11.dtd" >
<svg xmlns="http://www.w3.org/2000/svg">
<metadata></metadata>
<defs>
<font id="foundation_sans_ex_blkregular" horiz-adv-x="1024" >
<font-face units-per-em="2048" ascent="1690" descent="-358" />
<missing-glyph horiz-adv-x="614" />
<glyph unicode="&#xfb01;" horiz-adv-x="1538" d="M14 750v276h154v96q0 161 79 224t283 63q80 0 291 -12v-275q-54 0 -83 -2t-51.5 -6t-31.5 -16.5t-13 -27.5t-5 -44h184v-276h-184v-750h-469v750h-154zM958 0v1026h469v-1026h-469zM958 1122v244h469v-244h-469z" />
<glyph unicode="&#xfb02;" horiz-adv-x="1538" d="M14 750v276h154v96q0 161 79 224t283 63q80 0 291 -12v-275q-54 0 -83 -2t-51.5 -6t-31.5 -16.5t-13 -27.5t-5 -44h184v-276h-184v-750h-469v750h-154zM958 0v1366h469v-1366h-469z" />
<glyph unicode="&#xfb03;" horiz-adv-x="2383" d="M14 750v276h154v96q0 161 79 224t283 63q80 0 291 -12v-275q-54 0 -83 -2t-51.5 -6t-31.5 -16.5t-13 -27.5t-5 -44h184v-276h-184v-750h-469v750h-154zM860 750v276h154v96q0 161 79 224t283 63q80 0 291 -12v-275q-54 0 -83 -2t-51.5 -6t-31.5 -16.5t-13 -27.5t-5 -44 h184v-276h-184v-750h-469v750h-154zM1804 0v1026h469v-1026h-469zM1804 1122v244h469v-244h-469z" />
<glyph unicode="&#xfb04;" horiz-adv-x="2383" d="M14 750v276h154v96q0 161 79 224t283 63q80 0 291 -12v-275q-54 0 -83 -2t-51.5 -6t-31.5 -16.5t-13 -27.5t-5 -44h184v-276h-184v-750h-469v750h-154zM860 750v276h154v96q0 161 79 224t283 63q80 0 291 -12v-275q-54 0 -83 -2t-51.5 -6t-31.5 -16.5t-13 -27.5t-5 -44 h184v-276h-184v-750h-469v750h-154zM1804 0v1366h469v-1366h-469z" />
<glyph horiz-adv-x="2048" />
<glyph horiz-adv-x="2048" />
<glyph unicode="&#xd;" horiz-adv-x="2048" />
<glyph unicode=" "  horiz-adv-x="614" />
<glyph unicode="&#x09;" horiz-adv-x="614" />
<glyph unicode="&#xa0;" horiz-adv-x="614" />
<glyph unicode="!" horiz-adv-x="753" d="M125 1366h504l-74 -852h-354zM147 0v412h459v-412h-459z" />
<glyph unicode="&#x22;" horiz-adv-x="1071" d="M18 1366h488l-86 -549h-316zM563 1366h490l-88 -549h-316z" />
<glyph unicode="#" horiz-adv-x="1382" d="M168 406l27 192h188l25 162h-191l29 192h188l39 285h199l-41 -285h176l39 285h198l-40 -285h210l-26 -192h-211l-23 -162h211l-26 -192h-211l-45 -312h-197l43 312h-174l-45 -312h-197l43 312h-188zM582 598h174l24 162h-176z" />
<glyph unicode="$" horiz-adv-x="1931" d="M129 430h639q15 -62 58 -86.5t137 -24.5q116 0 168.5 22t52.5 69q0 45 -51 59q-29 8 -277 39q-311 38 -481 96q-238 80 -238 336q0 136 88 237.5t258 161.5q137 48 373 62v209h215v-209q158 -8 246 -21.5t164 -42.5q253 -99 274 -376h-610q-13 67 -53 90.5t-140 23.5 q-194 0 -194 -86q0 -40 45 -57q19 -6 32 -8.5t66.5 -9t171.5 -17.5q312 -30 479 -90q120 -41 186 -133t66 -217q0 -154 -95.5 -266.5t-276.5 -172.5q-138 -45 -361 -53v-217h-215v217q-362 17 -532 126t-195 339z" />
<glyph unicode="%" horiz-adv-x="2332" d="M76 1030q0 164 120.5 259t329.5 95q212 0 331.5 -94.5t119.5 -263.5t-119 -264.5t-330 -95.5q-215 0 -333.5 95.5t-118.5 268.5zM360 1028q0 -90 44 -140t122 -50t122 49.5t44 138.5q0 88 -44 137t-122 49q-77 0 -121.5 -49t-44.5 -135zM850 0l477 1366h156l-467 -1366 h-166zM1356 346q0 164 120.5 259t329.5 95q212 0 331.5 -94.5t119.5 -263.5t-119 -264.5t-330 -95.5q-215 0 -333.5 95.5t-118.5 268.5zM1640 344q0 -90 44 -140t122 -50t122 49.5t44 138.5q0 88 -44 137t-122 49q-77 0 -121.5 -49t-44.5 -135z" />
<glyph unicode="&#x26;" horiz-adv-x="1882" d="M61 436q0 177 118 282.5t364 151.5q-46 60 -63 105.5t-17 107.5q0 326 557 326q286 0 441 -89t155 -253q0 -124 -89 -203.5t-298 -142.5l170 -186q92 62 157 110l146 119l184 -229q-120 -100 -291 -216l291 -319h-581l-82 94q-272 -121 -527 -121q-132 0 -258.5 35.5 t-216.5 97.5q-74 53 -117 141.5t-43 188.5zM563 467q0 -83 70.5 -140t171.5 -57q81 0 201 54l-275 309q-91 -22 -129.5 -60t-38.5 -106zM975 1055q0 -50 65 -127q89 19 124.5 46t35.5 75q0 41 -31 66.5t-82 25.5q-49 0 -80.5 -24.5t-31.5 -61.5z" />
<glyph unicode="'" horiz-adv-x="540" d="M18 1366h502l-86 -549h-330z" />
<glyph unicode="(" horiz-adv-x="999" d="M80 584q0 395 209 592q108 102 248.5 146t355.5 44v-313q-107 -10 -163 -31t-99 -66q-109 -112 -109 -370q0 -282 127 -391q41 -35 93.5 -52t150.5 -26v-314h-45q-374 0 -571 203t-197 578z" />
<glyph unicode=")" horiz-adv-x="999" d="M106 117q109 10 165.5 31t97.5 65q108 111 108 373q0 280 -127 389q-43 36 -95 52.5t-149 25.5v313q133 0 208 -10t165 -41q108 -37 197.5 -111t146.5 -174q45 -81 71 -198t26 -246q0 -377 -196 -580t-574 -203h-44v314z" />
<glyph unicode="*" horiz-adv-x="978" d="M68 963l79 241l238 -94l-29 256h256l-16 -256l235 107l80 -244l-249 -64l174 -190l-209 -152l-135 217l-130 -223l-206 150l163 198z" />
<glyph unicode="+" d="M-4 666v200h410v422h208v-422h412v-200h-412v-422h-208v422h-410z" />
<glyph unicode="," horiz-adv-x="665" d="M111 0v395h444v-340q0 -101 -35.5 -161t-126.5 -109q-97 -54 -243 -78l-39 148q86 13 125.5 47.5t44.5 97.5h-170z" />
<glyph unicode="-" horiz-adv-x="790" d="M0 319v416h791v-416h-791z" />
<glyph unicode="." horiz-adv-x="665" d="M111 0v428h444v-428h-444z" />
<glyph unicode="/" horiz-adv-x="899" d="M-2 -197l504 1563h366l-506 -1563h-364z" />
<glyph unicode="0" horiz-adv-x="1931" d="M63 692q0 148 53.5 277.5t149.5 214.5q123 106 303.5 162.5t395.5 56.5q441 0 698 -219q98 -85 150.5 -214.5t52.5 -287.5t-52.5 -286.5t-150.5 -213.5q-125 -106 -303.5 -162.5t-390.5 -56.5q-219 0 -399 56t-304 163q-203 176 -203 510zM631 688q0 -180 88 -279.5 t246 -99.5q157 0 245 99t88 274q0 177 -88 276t-245 99q-155 0 -244.5 -98.5t-89.5 -270.5z" />
<glyph unicode="1" horiz-adv-x="1931" d="M543 831v322q142 57 223 104t143 109h396v-1366h-531v901q-130 -54 -231 -70z" />
<glyph unicode="2" horiz-adv-x="1931" d="M66 0q6 134 28 233.5t69.5 183.5t117 143.5t180 111.5t249 90.5t332.5 75.5q114 23 158.5 48.5t44.5 65.5q0 103 -225 103q-149 0 -223 -45q-36 -22 -53.5 -51t-28.5 -85h-635q11 131 56 216.5t140 154.5q214 158 711 158q432 0 655.5 -123t223.5 -362q0 -257 -275 -359 q-77 -28 -179.5 -48.5t-311.5 -49.5q-199 -28 -268 -46.5t-154 -68.5h1157v-346h-1769z" />
<glyph unicode="3" horiz-adv-x="1931" d="M68 463h620q10 -45 24.5 -68.5t41.5 -42.5q65 -43 215 -43q152 0 220 34.5t68 111.5q0 69 -55 90q-31 16 -166 16h-172v332h119q130 0 170 8q55 15 55 68q0 106 -221 106q-82 0 -151 -16q-47 -11 -71 -29t-44 -61h-623q19 126 70.5 200t159.5 129q98 48 282.5 76.5 t401.5 28.5q817 0 817 -408q0 -94 -46.5 -147t-166.5 -94q70 -25 107.5 -45.5t68.5 -51.5q88 -88 88 -221q0 -230 -232 -351.5t-673 -121.5q-547 0 -742 154q-77 62 -113.5 139t-51.5 207z" />
<glyph unicode="4" horiz-adv-x="1931" d="M76 217v371l796 778h730v-762h241v-387h-241v-217h-531v217h-995zM655 604h416v406z" />
<glyph unicode="5" horiz-adv-x="1931" d="M55 453h572q32 -77 106.5 -111.5t210.5 -34.5q138 0 217.5 42.5t79.5 117.5q0 78 -80.5 119t-234.5 41q-159 0 -285 -56h-504l92 795h1524v-340h-1139l-18 -152q204 70 500 70q367 0 566.5 -121t199.5 -342q0 -262 -228.5 -390t-697.5 -128q-501 0 -713 148 q-89 62 -126.5 137t-41.5 205z" />
<glyph unicode="6" horiz-adv-x="1931" d="M63 682q0 358 242.5 539.5t718.5 181.5q432 0 645 -166q64 -49 95 -111t42 -159h-602q-23 51 -61.5 68.5t-124.5 17.5q-182 0 -275 -80q-31 -28 -46 -60.5t-25 -95.5q210 66 458 66q350 0 543 -115t193 -322q0 -233 -229.5 -358t-657.5 -125q-237 0 -401.5 43t-284.5 137 q-113 89 -171.5 226.5t-58.5 312.5zM700 442q0 -63 73.5 -99t201.5 -36q123 0 196.5 36.5t73.5 96.5q0 61 -73.5 97t-198.5 36q-123 0 -198 -36t-75 -95z" />
<glyph unicode="7" horiz-adv-x="1931" d="M80 1020v346h1771q0 -129 -17 -216.5t-68.5 -177t-132 -172t-222.5 -202.5q-218 -183 -308 -307.5t-122 -290.5h-715q44 297 221 477q64 66 164.5 137t345.5 228q81 52 124 88t91 90h-1132z" />
<glyph unicode="8" horiz-adv-x="1931" d="M74 438q0 109 43.5 177.5t144.5 121.5q-91 47 -128.5 105t-37.5 149q0 200 183 285q127 60 309 93.5t377 33.5t377 -33.5t311 -93.5q180 -85 180 -287q0 -89 -37.5 -147t-126.5 -105q100 -51 143 -120.5t43 -178.5q0 -101 -45.5 -187.5t-128.5 -141.5q-120 -82 -278 -114 t-438 -32t-438.5 32t-278.5 114q-83 55 -128.5 141.5t-45.5 187.5zM678 438q0 -69 67 -99t222 -30q149 0 216.5 29.5t67.5 95.5q0 68 -66.5 97.5t-219.5 29.5q-150 0 -218.5 -29.5t-68.5 -93.5zM707 981q0 -54 58.5 -76t197.5 -22q140 0 200 22t60 74q0 51 -59.5 72.5 t-198.5 21.5q-137 0 -197.5 -21.5t-60.5 -70.5z" />
<glyph unicode="9" horiz-adv-x="1931" d="M72 922q0 112 56.5 205.5t156.5 146.5q243 129 637 129q411 0 665 -158q134 -83 203.5 -225t69.5 -334q0 -363 -222.5 -543t-672.5 -180q-460 0 -689 162q-69 49 -107 116t-60 175h583q32 -63 95 -92t169 -29q154 0 238 78q31 28 49 65t31 103q-83 -35 -166.5 -49.5 t-204.5 -14.5q-350 0 -512 58q-319 111 -319 387zM692 920q0 -74 67.5 -109t209.5 -35q270 0 270 142q0 139 -272 139q-275 0 -275 -137z" />
<glyph unicode=":" horiz-adv-x="665" d="M111 0v428h444v-428h-444zM111 598v428h444v-428h-444z" />
<glyph unicode=";" horiz-adv-x="665" d="M111 0v395h444v-340q0 -101 -35.5 -161t-126.5 -109q-97 -54 -243 -78l-39 148q86 13 125.5 47.5t44.5 97.5h-170zM111 598v428h444v-428h-444z" />
<glyph unicode="&#x3c;" d="M68 510v371l886 512v-447l-413 -252l411 -254l2 -442z" />
<glyph unicode="=" d="M-4 508v194h1032v-194h-1032zM-4 831v195h1032v-195h-1032z" />
<glyph unicode="&#x3e;" d="M68 -2v444l415 254l-413 254l-2 443l886 -512v-373z" />
<glyph unicode="?" horiz-adv-x="1656" d="M41 924q6 117 42 192t114 137q95 75 257.5 115.5t368.5 40.5q369 0 574 -114t205 -320q0 -86 -41 -157t-113 -109q-52 -26 -103 -43.5t-176 -53.5q-54 -15 -75.5 -32t-42.5 -60h-467q12 139 68 205t214 129q99 39 135.5 72.5t36.5 81.5q0 55 -53 86.5t-147 31.5 q-125 0 -184.5 -47t-69.5 -155h-543zM584 0v432h467v-432h-467z" />
<glyph unicode="@" horiz-adv-x="1359" d="M23 672q0 140 54 266.5t146 217.5t220 144.5t270 53.5q168 0 312 -77t228 -208.5t84 -284.5q0 -112 -49.5 -211t-138.5 -165q-57 -43 -127 -69t-127 -26q-96 0 -147 70q-81 -48 -120.5 -63t-88.5 -15q-115 0 -191 81t-76 204q0 107 56.5 207.5t149.5 162.5t192 62 q119 0 198 -82l19 49l215 -2l-156 -483l-8 -29q-8 -16 -8 -31q0 -12 11.5 -22t25.5 -10q28 0 73.5 31t79.5 73q40 53 64 121.5t24 134.5q0 123 -67.5 229.5t-181.5 169t-246 62.5q-152 0 -278.5 -74t-199.5 -202.5t-73 -282.5q0 -156 74.5 -286.5t203.5 -206t283 -75.5 q132 0 252.5 65.5t198.5 180.5h151q-88 -168 -254.5 -269t-355.5 -101t-348 92t-251.5 251t-92.5 347zM508 510q0 -47 20 -75.5t54 -28.5q51 0 89 45.5t74 146.5l46 129q20 56 20 98q0 35 -20.5 59.5t-49.5 24.5q-44 0 -87.5 -39t-75.5 -108q-29 -65 -49.5 -138t-20.5 -114z " />
<glyph unicode="A" horiz-adv-x="1755" d="M-14 0l546 1366h691l546 -1366h-571l-57 125h-557l-52 -125h-546zM678 473h360l-176 502z" />
<glyph unicode="B" horiz-adv-x="1982" d="M133 0v1366h1079q167 0 259 -10.5t161 -38.5q88 -35 139.5 -118t51.5 -187q0 -89 -33 -146t-113 -110q71 -32 104.5 -56.5t61.5 -64.5q64 -98 64 -223q0 -109 -43 -199.5t-117 -136.5q-69 -43 -166.5 -59.5t-277.5 -16.5h-1170zM655 332h439q130 0 159 2.5t52 15.5 q43 22 43 80q0 61 -56 82q-22 8 -51.5 10t-146.5 2h-439v-192zM655 858h379q122 0 166 8q31 6 48.5 28t17.5 54q0 54 -45 71t-185 17h-381v-178z" />
<glyph unicode="C" horiz-adv-x="2007" d="M76 690q0 719 948 719q548 0 782 -225q64 -60 98.5 -139t49.5 -201h-600q-32 118 -107 167.5t-221 49.5q-184 0 -279.5 -92t-95.5 -271q0 -187 98 -290t277 -103q76 0 139.5 18t100.5 50q24 22 42.5 50.5t45.5 86.5h600q-15 -149 -69 -240.5t-169 -163.5 q-129 -82 -288.5 -115.5t-415.5 -33.5q-251 0 -411.5 41.5t-281.5 138.5q-243 191 -243 553z" />
<glyph unicode="D" horiz-adv-x="1955" d="M133 0v1366h905q265 0 402.5 -35.5t240.5 -130.5q197 -179 197 -534q0 -337 -170 -504q-70 -67 -146.5 -100.5t-194 -47.5t-320.5 -14h-914zM655 348h252q130 0 192.5 9.5t104.5 37.5q115 73 115 285q0 100 -29.5 174.5t-83.5 112.5q-44 32 -99.5 41.5t-205.5 9.5h-246 v-670z" />
<glyph unicode="E" horiz-adv-x="1818" d="M133 0v1366h1546v-348h-1024v-152h848v-348h-848v-170h1088v-348h-1610z" />
<glyph unicode="F" horiz-adv-x="1744" d="M133 0v1366h1563v-348h-1041v-160h861v-348h-861v-510h-522z" />
<glyph unicode="G" horiz-adv-x="2037" d="M76 678q0 177 67.5 323t190.5 234q242 174 672 174q221 0 403 -45.5t299 -130.5q103 -73 153.5 -153t69.5 -197h-620q-66 178 -299 178q-169 0 -265 -97.5t-96 -269.5q0 -188 107.5 -288.5t308.5 -100.5q132 0 208 38t105 120h-231v297h782v-756h-225l-70 148 q-52 -51 -97.5 -79t-108.5 -50q-195 -66 -451 -66q-433 0 -668 187.5t-235 533.5z" />
<glyph unicode="H" horiz-adv-x="1923" d="M133 0v1366h522v-481h611v481h522v-1366h-522v537h-611v-537h-522z" />
<glyph unicode="I" horiz-adv-x="798" d="M137 0v1366h522v-1366h-522z" />
<glyph unicode="J" horiz-adv-x="1636" d="M33 573h520q6 -152 54.5 -210t168.5 -58q91 0 136 32t63 110t18 235v684h523v-827q0 -172 -31.5 -267t-110.5 -163q-183 -152 -567 -152q-274 0 -459 66.5t-256 189.5q-34 58 -46.5 136.5t-12.5 223.5z" />
<glyph unicode="K" horiz-adv-x="1910" d="M133 0v1366h522v-514l533 514h708l-567 -487l604 -879h-661l-377 573l-240 -227v-346h-522z" />
<glyph unicode="L" horiz-adv-x="1667" d="M133 0v1366h522v-1018h977v-348h-1499z" />
<glyph unicode="M" horiz-adv-x="2408" d="M133 0v1366h858l142 -387q60 -164 67 -336h19q8 103 21 172.5t46 163.5l135 387h852v-1366h-522v1004h-8q-16 -155 -60 -279l-262 -725h-430l-266 725q-21 57 -33.5 107.5t-16 75t-11.5 96.5h-9v-1004h-522z" />
<glyph unicode="N" horiz-adv-x="1959" d="M133 0v1366h590l428 -518q76 -92 103.5 -139t101.5 -199h16q-69 196 -69 420v436h522v-1366h-574l-450 535q-62 73 -101 142t-90 189h-16q36 -108 48.5 -185t12.5 -192v-489h-522z" />
<glyph unicode="O" horiz-adv-x="2013" d="M76 694q0 172 54 306t157 217q125 100 297 146t422 46q253 0 422.5 -45.5t295.5 -146.5q211 -169 211 -535q0 -370 -226.5 -548.5t-696.5 -178.5q-256 0 -427.5 45.5t-297.5 146.5q-108 88 -159.5 221t-51.5 326zM651 688q0 -385 357 -385q172 0 262 96.5t90 282.5 t-90.5 282.5t-263.5 96.5q-172 0 -263.5 -96t-91.5 -277z" />
<glyph unicode="P" horiz-adv-x="1820" d="M133 0v1366h1020q196 0 295.5 -20t173.5 -74q152 -115 152 -361q0 -275 -183 -383q-71 -41 -157 -55t-277 -14h-502v-459h-522zM655 788h328q137 0 172 21q59 37 59 121q0 75 -48.5 103t-180.5 28h-330v-273z" />
<glyph unicode="Q" horiz-adv-x="2009" d="M76 688q0 359 209 526q126 101 299.5 148t425.5 47q248 0 417 -45t293 -145q213 -174 213 -539q0 -123 -26.5 -231.5t-73.5 -182.5q-40 -63 -123 -129l182 -182l-252 -244l-268 277q-181 -33 -371 -33q-476 0 -700.5 177.5t-224.5 555.5zM651 680q0 -377 355 -377 q30 0 53 4l-92 92l247 244l121 -123q23 78 23 154q0 387 -352 387q-355 0 -355 -381z" />
<glyph unicode="R" horiz-adv-x="1828" d="M133 0v1366h1012q233 0 327.5 -16.5t157.5 -67.5q129 -101 129 -309q0 -172 -78 -260q-32 -34 -72.5 -53t-117.5 -37q56 -16 88.5 -29t61.5 -37t42.5 -49.5t25 -76.5t15.5 -107.5t7 -151.5q3 -82 8.5 -108.5t27.5 -63.5h-546q-14 96 -17 180q-3 60 -5.5 96.5t-9 73 t-13 55.5t-21.5 37.5t-29.5 25.5t-43 13t-56.5 7t-74 1h-297v-489h-522zM655 778h346q110 0 146 23q53 37 53 114q0 74 -42 103t-152 29h-351v-269z" />
<glyph unicode="S" horiz-adv-x="1902" d="M59 410h725q35 -57 91 -81t153 -24q186 0 186 88q0 54 -63 72q-33 9 -94.5 16.5t-292.5 30.5q-262 27 -430 84q-128 41 -195 128.5t-67 213.5q0 230 223 350.5t651 120.5q436 0 645 -135q85 -54 130 -121.5t77 -187.5h-682q-48 125 -246 125q-81 0 -128.5 -25t-47.5 -66 q0 -27 11.5 -41.5t67 -28.5t136 -24t252.5 -28q180 -19 259.5 -34t168.5 -48q124 -47 188 -138t64 -219q0 -244 -223 -362.5t-682 -118.5q-444 0 -651 115q-111 60 -162 135.5t-64 202.5z" />
<glyph unicode="T" horiz-adv-x="1609" d="M20 1018v348h1569v-348h-526v-1018h-522v1018h-521z" />
<glyph unicode="U" horiz-adv-x="1880" d="M121 575v791h522v-700q0 -193 69.5 -277t229.5 -84t228.5 83.5t68.5 277.5v700h522v-791q0 -169 -36 -274t-121 -178q-190 -166 -662 -166q-500 0 -686 186q-72 72 -103.5 173t-31.5 259z" />
<glyph unicode="V" horiz-adv-x="1773" d="M-14 1366h571l258 -573q62 -137 80 -306h16q23 169 82 306l246 573h549l-582 -1366h-612z" />
<glyph unicode="W" horiz-adv-x="2537" d="M-14 1366h553l174 -483q31 -89 43 -163.5t18 -205.5h17q0 195 59 369l166 483h508l168 -483q34 -99 48.5 -179t20.5 -190h17q0 190 59 369l160 483h553l-459 -1366h-598l-145 432q-60 170 -72 361h-19q-10 -175 -71 -361l-139 -432h-584z" />
<glyph unicode="X" horiz-adv-x="1789" d="M-29 0l584 729l-524 637h676l206 -262l199 262h653l-530 -651l584 -715h-682l-254 330l-265 -330h-647z" />
<glyph unicode="Y" horiz-adv-x="1744" d="M-27 1366h615l289 -506l292 506h605l-646 -1022v-344h-524v344z" />
<glyph unicode="Z" horiz-adv-x="1763" d="M55 0v303l838 715h-797v348h1614v-313l-821 -705h805v-348h-1639z" />
<glyph unicode="[" horiz-adv-x="999" d="M121 -197v1563h782v-313h-348v-936h348v-314h-782z" />
<glyph unicode="\" horiz-adv-x="899" d="M31 1366h364l506 -1563h-364z" />
<glyph unicode="]" horiz-adv-x="999" d="M96 117h350v936h-350v313h785v-1563h-785v314z" />
<glyph unicode="^" d="M0 670l266 706h494l266 -706h-387l-125 407l-127 -407h-387z" />
<glyph unicode="_" d="M0 -86h1024v-258h-1024v258z" />
<glyph unicode="`" d="M137 1372h623l129 -258h-467z" />
<glyph unicode="a" horiz-adv-x="1712" d="M63 328q0 86 47 148.5t136 96.5q235 86 663 95q73 2 113 4t65 8t32 14t7 23q0 40 -68 66t-175 26q-173 0 -221 -68l-515 -20q26 111 75 172.5t147 103.5q165 74 485 74q501 0 651 -135q54 -50 75.5 -117t21.5 -192v-400q0 -94 8.5 -139.5t34.5 -87.5h-492l-10 92 q-118 -65 -230 -92t-268 -27q-274 0 -428 94t-154 261zM623 356q0 -86 188 -86q181 0 250 36.5t69 131.5v27q-7 -1 -21.5 -3.5t-19 -3t-15.5 -2t-17 -1.5t-18 -1t-25 -1.5t-30.5 -1t-41.5 -0.5q-187 -5 -223 -11q-45 -6 -70.5 -28.5t-25.5 -55.5z" />
<glyph unicode="b" horiz-adv-x="1708" d="M111 0v1366h469v-412q111 53 208.5 76t210.5 23q295 0 469 -144t174 -387q0 -255 -170.5 -402t-465.5 -147q-131 0 -226 30.5t-213 109.5l13 -113h-469zM578 512q0 -103 70.5 -158t199.5 -55q130 0 201 54.5t71 154.5t-70.5 155.5t-199.5 55.5q-127 0 -199.5 -55 t-72.5 -152z" />
<glyph unicode="c" horiz-adv-x="1718" d="M66 510q0 175 77 299.5t219 179.5q214 82 506 82q213 0 396 -47q133 -35 219 -98.5t133 -161.5q28 -57 43 -143h-539q-62 149 -252 149q-132 0 -206 -68t-74 -190q0 -123 75 -192.5t207 -69.5q114 0 177 46.5t88 149.5h524q-15 -120 -48.5 -193.5t-99.5 -133.5 q-179 -162 -608 -162q-376 0 -584 100q-119 57 -186 177.5t-67 275.5z" />
<glyph unicode="d" horiz-adv-x="1708" d="M66 522q0 243 174 387t469 144q115 0 211.5 -23t207.5 -76v412h469v-1366h-469l13 113q-118 -79 -213 -109.5t-226 -30.5q-294 0 -465 147.5t-171 401.5zM588 510q0 -100 71 -155.5t199 -55.5q127 0 199.5 55t72.5 152q0 103 -70.5 158t-199.5 55q-130 0 -201 -54.5 t-71 -154.5z" />
<glyph unicode="e" horiz-adv-x="1675" d="M66 522q0 128 46 232t128 161q103 73 261 113.5t343 40.5q252 0 432.5 -71.5t255.5 -200.5q40 -70 57.5 -159t20.5 -251h-1026q15 -49 33 -74.5t51 -44.5q77 -41 209 -41q78 0 119.5 15.5t78.5 56.5h535q-26 -93 -68 -148t-119 -96q-186 -98 -524 -98q-412 0 -616 121 q-101 61 -159 180t-58 264zM588 647h516q-46 144 -256 144q-209 0 -260 -144z" />
<glyph unicode="f" horiz-adv-x="845" d="M14 750v276h154v96q0 161 79 224t283 63q80 0 291 -12v-275q-54 0 -83 -2t-51.5 -6t-31.5 -16.5t-13 -27.5t-5 -44h184v-276h-184v-750h-469v750h-154z" />
<glyph unicode="g" horiz-adv-x="1726" d="M68 553q0 233 169.5 366.5t467.5 133.5q153 0 259 -33.5t183 -104.5v111h469v-817q0 -151 -27.5 -237.5t-93.5 -143.5q-79 -69 -259.5 -107t-426.5 -38q-341 0 -503.5 77t-196.5 254h557q31 -38 69 -52.5t111 -14.5q179 0 246 73q25 26 37 63t18 105q-78 -52 -171 -75 t-226 -23q-170 0 -313 36t-230 99q-65 50 -102 137.5t-37 190.5zM590 541q0 -86 74.5 -135.5t205.5 -49.5q125 0 201 51t76 134q0 82 -75 131t-200 49q-130 0 -206 -48.5t-76 -131.5z" />
<glyph unicode="h" horiz-adv-x="1652" d="M111 0v1366h469v-438q122 69 227 97t246 28q259 0 377 -109q76 -67 100 -180q12 -54 12 -254v-510h-469v424q0 160 -35 223q-46 78 -188 78q-170 0 -236 -117q-34 -61 -34 -184v-424h-469z" />
<glyph unicode="i" horiz-adv-x="690" d="M111 0v1026h469v-1026h-469zM111 1122v244h469v-244h-469z" />
<glyph unicode="j" horiz-adv-x="704" d="M-63 -6l30 -2l56 -2q60 -1 81 27t21 106v903h469v-985q0 -128 -12.5 -190t-46.5 -99q-67 -76 -269 -76q-145 0 -329 45v273zM125 1122v244h469v-244h-469z" />
<glyph unicode="k" horiz-adv-x="1566" d="M111 0v1366h469v-657l338 317h638l-421 -360l458 -666h-587l-248 395l-178 -157v-238h-469z" />
<glyph unicode="l" horiz-adv-x="690" d="M111 0v1366h469v-1366h-469z" />
<glyph unicode="m" horiz-adv-x="2598" d="M111 0v1026h450v-129q102 81 219.5 118.5t268.5 37.5q155 0 253.5 -36.5t172.5 -119.5q113 84 233 120t285 36q280 0 397 -135q54 -61 76 -145.5t22 -223.5v-549h-469v393q0 112 -11.5 172t-39.5 94q-57 66 -176 66q-69 0 -127.5 -24.5t-87.5 -65.5q-45 -62 -45 -205 v-430h-469v395q0 119 -7 168.5t-30 85.5q-22 35 -71.5 55.5t-114.5 20.5q-73 0 -131.5 -26.5t-87.5 -73.5q-41 -61 -41 -193v-432h-469z" />
<glyph unicode="n" horiz-adv-x="1652" d="M111 0v1026h469v-98q120 69 225.5 97t247.5 28q256 0 377 -109q76 -67 100 -180q12 -54 12 -254v-510h-469v424q0 160 -35 223q-46 78 -188 78q-170 0 -236 -117q-34 -61 -34 -184v-424h-469z" />
<glyph unicode="o" horiz-adv-x="1730" d="M66 524q0 166 78.5 289.5t217.5 177.5q204 80 504 80q298 0 502 -80q142 -55 219.5 -179.5t77.5 -297.5t-77 -296t-220 -179q-206 -82 -500 -82q-297 0 -506 82q-146 57 -221 180t-75 305zM588 518q0 -120 76 -192t202 -72q123 0 200 72.5t77 187.5t-77 187.5t-200 72.5 t-200.5 -71t-77.5 -185z" />
<glyph unicode="p" horiz-adv-x="1726" d="M111 -297v1323h469v-96q96 69 189 96t241 27q270 0 438 -117q103 -74 157 -182t54 -240q0 -124 -48 -232.5t-134 -177.5q-78 -63 -201.5 -97t-274.5 -34q-137 0 -236 25t-185 82v-377h-469zM580 518q0 -215 278 -215q137 0 208 53.5t71 157.5q0 211 -279 211 q-138 0 -208 -52.5t-70 -154.5z" />
<glyph unicode="q" horiz-adv-x="1726" d="M68 514q0 132 54 240t157 182q165 117 440 117q147 0 240.5 -27t187.5 -96v96h469v-1323h-469v377q-87 -56 -186.5 -81.5t-235.5 -25.5q-151 0 -274 34t-201 97q-85 69 -133.5 178t-48.5 232zM590 514q0 -104 70.5 -157.5t207.5 -53.5t209 53t72 154q0 215 -281 215 q-137 0 -207.5 -53.5t-70.5 -157.5z" />
<glyph unicode="r" horiz-adv-x="1396" d="M111 0v1026h469v-98q92 66 182.5 95.5t200.5 29.5q299 0 366 -213q26 -83 29 -291h-471q-5 91 -38 129.5t-106 38.5q-86 0 -124.5 -56.5t-38.5 -181.5v-479h-469z" />
<glyph unicode="s" horiz-adv-x="1566" d="M43 336l567 -29q27 -40 69.5 -57t123.5 -17q139 0 139 64q0 34 -49 43q-8 1 -408 57q-232 32 -332 106.5t-100 213.5q0 89 44 159.5t124 110.5q92 46 206 65t294 19q438 0 610 -113q69 -44 102.5 -94.5t55.5 -142.5l-602 20q-38 47 -160 47q-71 0 -101 -12t-30 -41 q0 -27 31.5 -38t126.5 -17q290 -17 456 -57.5t240 -113.5t74 -194q0 -181 -175 -269.5t-532 -88.5q-445 0 -620 115q-75 51 -108.5 108t-45.5 156z" />
<glyph unicode="t" horiz-adv-x="854" d="M0 750v276h166v340h469v-340h164v-276h-164v-377q0 -71 23 -90t108 -19h33v-264h-281q-133 0 -204.5 20.5t-106.5 67.5q-25 34 -33 76.5t-8 136.5v449h-166z" />
<glyph unicode="u" horiz-adv-x="1652" d="M111 514v512h469v-424q0 -162 34 -223q22 -37 72 -57.5t117 -20.5q171 0 235 115q35 60 35 186v424h469v-1026h-469v98q-122 -69 -227 -97t-246 -28q-259 0 -377 109q-76 67 -100 180q-12 68 -12 252z" />
<glyph unicode="v" horiz-adv-x="1449" d="M-14 1026h520l233 -559l232 559h491l-473 -1026h-522z" />
<glyph unicode="w" horiz-adv-x="2412" d="M-14 1026h520l239 -500l226 500h520l225 -500l230 500h479l-473 -1026h-488l-243 526l-265 -526h-471z" />
<glyph unicode="x" horiz-adv-x="1601" d="M-33 0l531 551l-453 475h598l178 -201l180 201h584l-455 -479l488 -547h-594l-211 236l-235 -236h-611z" />
<glyph unicode="y" horiz-adv-x="1476" d="M-14 1026h526l258 -586l234 586h485l-295 -731q-160 -395 -268 -500q-122 -119 -434 -119q-184 0 -379 39v346q121 -59 227 -59q58 0 125 18z" />
<glyph unicode="z" horiz-adv-x="1470" d="M41 0v260l606 453h-547v313h1307v-256l-662 -457h648v-313h-1352z" />
<glyph unicode="{" d="M117 319v363q63 14 87.5 45t24.5 107v249q0 180 93 246q47 34 103 43.5t198 9.5q20 0 67 -3t113 -3h74v-418q-37 3 -54 3q-39 0 -60.5 -1t-41 -7t-27.5 -13t-14 -24.5t-7 -36.5t-1 -54v-73q0 -112 -25 -161.5t-98 -101.5q71 -47 97 -102.5t26 -159.5v-98q0 -35 1 -53.5 t7.5 -36t14.5 -24.5t28.5 -12t42.5 -6t63 -1h48v-393l-74 -2l-68 -4q-55 -3 -114 -3q-142 0 -204.5 13t-109.5 51q-78 66 -78 233v254q0 83 -25.5 122.5t-86.5 51.5z" />
<glyph unicode="|" d="M287 -342v1708h450v-1708h-450z" />
<glyph unicode="}" d="M147 18h54q39 0 60.5 1t41 7t27.5 13t14 24.5t7 36.5t1 54v71q0 78 12 124t36 74.5t75 65.5q-71 47 -97 103t-26 160v98q0 26 -0.5 42t-3.5 31.5t-6.5 23.5t-13 16t-19 11t-28 5.5t-37 3t-49.5 0.5h-48v391q37 2 74 2l68 4q39 2 117 2q142 0 203.5 -12.5t107.5 -50.5 q78 -69 78 -234v-251q0 -43 6 -73t19.5 -51.5t34.5 -33.5t52 -17v-362q-36 -8 -55 -18.5t-31 -30.5q-7 -9 -13 -27t-9.5 -39t-3.5 -37v-249q0 -180 -93 -246q-33 -23 -66.5 -34t-85 -15t-149.5 -4q-20 0 -109.5 3t-144.5 3v415z" />
<glyph unicode="~" horiz-adv-x="1366" d="M186 1255q66 173 144 249.5t188 76.5q36 0 74.5 -11t216.5 -71q38 -14 59 -14q39 0 66 35q12 12 41 67l211 -178q-40 -102 -70 -153t-72 -95q-38 -40 -88 -62t-100 -22q-33 0 -84 14.5t-217 73.5q-33 11 -55 11q-28 0 -51 -22.5t-52 -78.5z" />
<glyph unicode="&#xa1;" horiz-adv-x="753" d="M125 -338l76 852h354l74 -852h-504zM147 614v412h459v-412h-459z" />
<glyph unicode="&#xa2;" horiz-adv-x="1931" d="M133 705q0 374 346 503q142 55 398 72v209h219v-209q338 -29 497 -135t205 -332h-563q-69 156 -260 156q-138 0 -215.5 -71t-77.5 -200q0 -132 78.5 -203t224.5 -71q117 0 178.5 48t89.5 161h545q-14 -246 -188.5 -373t-517.5 -139v-217h-215v217q-276 9 -459 94 q-137 63 -211 190.5t-74 299.5z" />
<glyph unicode="&#xa3;" horiz-adv-x="1931" d="M242 309q68 56 99 126t38 186h-115v235h92q-30 97 -30 174q0 168 112 254q153 119 561 119q458 0 615 -170q50 -56 73 -126.5t27 -186.5h-543q-5 106 -38.5 148t-114.5 42q-146 0 -146 -133q0 -39 23 -121h213v-235h-213q-29 -129 -150 -265q132 68 186 87.5t113 19.5 q73 0 156 -35q77 -31 103.5 -38t66.5 -7q51 0 91.5 18t135.5 84l117 -381q-101 -78 -176 -109.5t-160 -31.5q-62 0 -98 7.5t-199 52.5q-158 43 -301 43q-197 0 -352 -89z" />
<glyph unicode="&#xa4;" horiz-adv-x="1515" d="M45 219l221 221q-57 120 -57 248q0 137 65 264l-225 226l227 229l232 -231q122 57 250 57q129 0 248 -55l229 225l225 -225l-219 -222q70 -129 70 -266q0 -128 -58 -250l220 -219l-226 -227l-217 217q-134 -70 -289 -70q-67 0 -121 14.5t-131 53.5l-219 -215zM598 694 q0 -69 48 -117.5t114 -48.5q68 0 116 48.5t48 117.5q0 67 -48 115.5t-114 48.5q-69 0 -116.5 -47.5t-47.5 -116.5z" />
<glyph unicode="&#xa5;" horiz-adv-x="1744" d="M0 1366h586l288 -506l293 506h578l-291 -467h117v-201h-240l-106 -170h315v-202h-414v-326h-524v326h-405v202h311l-105 170h-233v201h113z" />
<glyph unicode="&#xa6;" d="M287 313h450v-655h-450v655zM287 612v754h450v-754h-450z" />
<glyph unicode="&#xa7;" horiz-adv-x="1515" d="M121 653q0 183 205 267q-29 37 -41.5 72.5t-12.5 84.5q0 148 141.5 240t370.5 92q232 0 365.5 -102t136.5 -283h-362v8q0 82 -136 82q-53 0 -83.5 -12.5t-30.5 -34.5q0 -15 13.5 -23t74.5 -30q22 -7 144.5 -48t238.5 -81q131 -44 191.5 -113t60.5 -174q0 -95 -43 -156.5 t-140 -107.5q72 -72 72 -180q0 -168 -141 -265.5t-385 -97.5t-384 98.5t-140 268.5q0 23 2 41h354q2 -6 3.5 -14.5t2.5 -13.5t2 -7q5 -22 14 -32t35 -19q56 -17 103 -17q61 0 97 16t36 42q0 28 -27 39q-38 16 -84 30q-120 35 -273 87.5t-202 76.5q-178 84 -178 266zM481 688 q0 -22 37 -33q7 0 55 -20q4 -1 14.5 -4.5l28.5 -9.5t35 -11l78 -26q187 -65 236 -74q45 5 61 12.5t16 24.5q0 24 -38 35l-37 12q-4 1 -31 11t-47 16q-49 15 -123 43q-154 56 -205 61q-47 -3 -63.5 -10.5t-16.5 -26.5z" />
<glyph unicode="&#xa8;" d="M-55 1157v244h471v-244h-471zM606 1157v244h471v-244h-471z" />
<glyph unicode="&#xa9;" horiz-adv-x="1550" d="M63 682q0 198 95.5 362.5t261.5 259.5t366 95q140 0 269.5 -57.5t223.5 -154t150 -229t56 -276.5q0 -145 -56 -277t-151 -228t-226.5 -153t-275.5 -57t-276 57t-227.5 153t-152.5 228t-57 277zM260 682q0 -144 69.5 -266.5t188.5 -194t258 -71.5t257 71.5t186.5 194 t68.5 266.5q0 143 -68.5 266.5t-185 196t-252.5 72.5q-144 0 -264 -71t-189 -194t-69 -270zM389 692q0 178 109.5 292t281.5 114q145 0 243.5 -86t104.5 -217h-192q-10 38 -51 60t-101 22q-66 0 -101.5 -49t-35.5 -138t35.5 -137.5t101.5 -48.5q133 0 154 102h197 q-12 -152 -108 -237.5t-253 -85.5q-173 0 -279 112.5t-106 296.5z" />
<glyph unicode="&#xaa;" horiz-adv-x="1097" d="M49 745q0 104 122 152t411 57q85 3 106 7t21 16q0 20 -41 33.5t-103 13.5q-105 0 -133 -41l-334 -12q17 72 49 111t97 67q101 43 305 43q311 0 405 -82q37 -31 50.5 -71t13.5 -117v-236q0 -56 6 -82.5t25 -56.5h-324l-6 49q-126 -66 -301 -66q-173 0 -271 57.5t-98 157.5 zM412 764q0 -45 108 -45q107 0 149 19.5t42 68.5v12l-6 -2h-7q-10 -1 -96 -4q-123 -1 -156.5 -10t-33.5 -39z" />
<glyph unicode="&#xab;" horiz-adv-x="1167" d="M74 524l205 402h311l-201 -402l201 -399h-311zM565 524l205 402h311l-200 -402l200 -399h-311z" />
<glyph unicode="&#xac;" d="M68 229v392h886v-621h-436v229h-450z" />
<glyph unicode="&#xad;" horiz-adv-x="790" d="M0 319v416h791v-416h-791z" />
<glyph unicode="&#xae;" horiz-adv-x="1550" d="M63 682q0 197 96 362t262.5 260t364.5 95q140 0 269.5 -57.5t223.5 -154t150 -229t56 -276.5q0 -145 -56 -277t-151 -228t-226.5 -153t-275.5 -57t-276 57t-227.5 153t-152.5 228t-57 277zM260 682q0 -144 69.5 -266.5t188.5 -194t258 -71.5t257 71.5t186.5 194 t68.5 266.5q0 143 -68.5 266.5t-185 196t-252.5 72.5q-144 0 -264 -71t-189 -194t-69 -270zM477 311v774h330q68 0 107.5 -7t72.5 -27q54 -29 82.5 -78t28.5 -109q0 -132 -119 -188q58 -24 79.5 -77.5t26.5 -176.5q1 -29 19 -111h-242q-12 30 -18 111q-5 106 -35 147 q-12 15 -33.5 26t-40.5 11h-2v-295h-256zM733 748h27q46 0 65 21.5t19 72.5q0 92 -78 92h-33v-186z" />
<glyph unicode="&#xaf;" d="M176 1200v176h670v-176h-670z" />
<glyph unicode="&#xb0;" d="M162 1038q0 148 103 251.5t249 103.5q147 0 248.5 -103.5t101.5 -253.5q0 -143 -103 -245.5t-247 -102.5q-146 0 -249 102.5t-103 247.5zM328 1040q0 -78 54.5 -135t129.5 -57q74 0 130 56t56 130q0 83 -55 141t-133 58q-72 0 -127 -58.5t-55 -134.5z" />
<glyph unicode="&#xb1;" d="M-4 -16v200h1032v-200h-1032zM-4 664v200h410v420h208v-420h414v-200h-414v-402h-208v402h-410z" />
<glyph unicode="&#xb2;" horiz-adv-x="1177" d="M49 545q5 121 32.5 199t96.5 137.5t176 97t281 70.5q67 13 94 28.5t27 40.5q0 62 -135 62q-88 0 -130 -25t-53 -84h-381q14 164 145.5 241t399.5 77q259 0 392.5 -74t133.5 -217q0 -157 -163 -215q-86 -31 -295 -60q-121 -17 -162 -28.5t-92 -40.5h694v-209h-1061z" />
<glyph unicode="&#xb3;" horiz-adv-x="1177" d="M49 823h373q12 -52 48.5 -72t119.5 -20q90 0 132 21t42 65q0 40 -26.5 53t-106.5 13h-105v198h72q27 0 50.5 1t36 2t13.5 1q33 11 33 41q0 64 -133 64q-70 0 -105.5 -14.5t-52.5 -49.5h-372q11 77 42 122t95 77q57 29 168 46.5t241 17.5q490 0 490 -246q0 -56 -28 -87.5 t-99 -58.5q85 -29 122.5 -73.5t37.5 -116.5q0 -137 -140 -210t-403 -73q-286 0 -407 66.5t-138 232.5z" />
<glyph unicode="&#xb4;" d="M137 1114l129 258h623l-285 -258h-467z" />
<glyph unicode="&#xb5;" d="M25 -356v1339h376v-475q0 -86 7 -121q7 -38 40 -63t74 -25q58 0 82 43q10 15 17.5 36.5t5.5 33.5q-4 61 -4 94v477h376v-983h-376v90q-20 -55 -46 -79.5t-63 -24.5q-71 0 -113 96v-438h-376z" />
<glyph unicode="&#xb6;" horiz-adv-x="1396" d="M154 1010q0 104 43 182t125 121q61 32 122 42.5t187 10.5h561v-158h-94v-1439h-205v1439h-148v-1439h-204v897q-10 -2 -27 -2q-63 0 -129 21t-115 58q-55 41 -85.5 111.5t-30.5 155.5z" />
<glyph unicode="&#xb7;" horiz-adv-x="665" d="M111 319v429h444v-429h-444z" />
<glyph unicode="&#xb8;" d="M213 -418l49 99q136 -46 221 -46q47 0 73 19.5t26 56.5q0 35 -25 54.5t-72 19.5q-32 0 -92 -16l-59 47l94 139h127l-57 -90q50 12 108 12q92 0 148.5 -43t56.5 -113q0 -85 -81.5 -140.5t-205.5 -55.5q-163 0 -311 57z" />
<glyph unicode="&#xb9;" horiz-adv-x="1177" d="M334 1044v193q88 36 135 64t86 65h236v-819h-318v540q-66 -30 -139 -43z" />
<glyph unicode="&#xba;" horiz-adv-x="1107" d="M51 862q0 98 51 172.5t140 108.5q127 47 313 47q504 0 504 -336q0 -104 -49.5 -178.5t-141.5 -108.5q-127 -47 -311 -47q-258 0 -382 83.5t-124 258.5zM391 858q0 -67 45 -108t119 -41t119 40.5t45 106.5q0 65 -45.5 105t-118.5 40q-72 0 -118 -40t-46 -103z" />
<glyph unicode="&#xbb;" horiz-adv-x="1167" d="M88 125l201 401l-201 400h309l207 -400l-207 -401h-309zM580 125l200 401l-200 400h311l205 -400l-205 -401h-311z" />
<glyph unicode="&#xbc;" horiz-adv-x="2576" d="M334 1044v193q88 36 135 64t86 65h236v-819h-318v540q-66 -30 -139 -43zM977 0l477 1366h156l-467 -1366h-166zM1454 131v223l479 465h437v-454h145v-234h-145v-131h-318v131h-598zM1802 365h250v241z" />
<glyph unicode="&#xbd;" horiz-adv-x="2576" d="M334 1044v193q88 36 135 64t86 65h236v-819h-318v540q-66 -30 -139 -43zM977 0l477 1366h156l-467 -1366h-166zM1448 0q5 121 33 199t97 137t175 96t281 70q67 13 93.5 28.5t26.5 40.5q0 62 -135 62q-88 0 -129.5 -25t-52.5 -84h-381q14 164 145.5 241t399.5 77 q259 0 392.5 -74t133.5 -217q0 -154 -166 -215q-69 -26 -293 -57q-118 -17 -159.5 -28.5t-93.5 -41.5h694v-209h-1061z" />
<glyph unicode="&#xbe;" horiz-adv-x="2576" d="M49 823h373q12 -52 48.5 -72t119.5 -20q90 0 132 21t42 65q0 40 -26.5 53t-106.5 13h-105v198h72q27 0 50.5 1t36 2t13.5 1q33 11 33 41q0 64 -133 64q-70 0 -105.5 -14.5t-52.5 -49.5h-372q11 77 42 122t95 77q57 29 168 46.5t241 17.5q490 0 490 -246q0 -56 -28 -87.5 t-99 -58.5q85 -29 122.5 -73.5t37.5 -116.5q0 -137 -140 -210t-403 -73q-286 0 -407 66.5t-138 232.5zM979 0l475 1366h156l-467 -1366h-164zM1454 131v223l479 465h437v-454h145v-234h-145v-131h-318v131h-598zM1802 365h250v241z" />
<glyph unicode="&#xbf;" horiz-adv-x="1656" d="M55 51q0 87 41 158t113 108q51 27 101.5 44.5t176.5 54.5q54 15 76 32.5t43 59.5h467q-12 -138 -68.5 -205t-211.5 -129q-101 -41 -138 -74.5t-37 -81.5q0 -55 53.5 -86.5t147.5 -31.5q124 0 183.5 47.5t70.5 154.5h543q-6 -117 -42 -192t-114 -137q-94 -75 -257 -115.5 t-369 -40.5q-369 0 -574 114t-205 320zM606 594v432h467v-432h-467z" />
<glyph unicode="&#xc0;" horiz-adv-x="1755" d="M-14 0l546 1366h691l546 -1366h-571l-57 125h-557l-52 -125h-546zM322 1780h626l158 -262h-444zM678 473h360l-176 502z" />
<glyph unicode="&#xc1;" horiz-adv-x="1755" d="M-14 0l546 1366h691l546 -1366h-571l-57 125h-557l-52 -125h-546zM670 1518l159 262h625l-338 -262h-446zM678 473h360l-176 502z" />
<glyph unicode="&#xc2;" horiz-adv-x="1755" d="M-14 0l546 1366h691l546 -1366h-571l-57 125h-557l-52 -125h-546zM297 1520l352 256h545l317 -256h-540l-90 86l-95 -86h-489zM678 473h360l-176 502z" />
<glyph unicode="&#xc3;" horiz-adv-x="1755" d="M-14 0l546 1366h691l546 -1366h-571l-57 125h-557l-52 -125h-546zM236 1507q53 147 164.5 216t297.5 69q57 0 94.5 -4t204.5 -27q130 -18 215 -18q80 0 131 43h242q-20 -70 -52 -118.5t-85 -88.5q-54 -41 -124 -58.5t-181 -17.5q-81 0 -145 5t-314 30q-52 6 -92 6 q-36 0 -56 -7.5t-40 -29.5h-260zM678 473h360l-176 502z" />
<glyph unicode="&#xc4;" horiz-adv-x="1755" d="M-14 0l546 1366h691l546 -1366h-571l-57 125h-557l-52 -125h-546zM315 1520v258h476v-258h-476zM678 473h360l-176 502zM979 1520v258h475v-258h-475z" />
<glyph unicode="&#xc5;" horiz-adv-x="1755" d="M-14 0l546 1366h691l546 -1366h-571l-57 125h-557l-52 -125h-546zM641 1640q0 80 70 130.5t180 50.5q113 0 181.5 -51t68.5 -134q0 -86 -68 -137t-182 -51q-116 0 -183 51.5t-67 140.5zM678 473h360l-176 502zM819 1638q0 -30 21.5 -51.5t50.5 -21.5t50.5 21.5t21.5 51.5 q0 29 -21 50.5t-49 21.5q-31 0 -52.5 -21.5t-21.5 -50.5z" />
<glyph unicode="&#xc6;" horiz-adv-x="3055" d="M-41 0l1163 1366h1821v-348h-1014v-152h856v-348h-856v-170h1053v-348h-1575v219h-645l-182 -219h-621zM1042 567h365v434z" />
<glyph unicode="&#xc7;" horiz-adv-x="2007" d="M76 690q0 719 950 719q274 0 457.5 -49.5t300.5 -155.5q72 -64 111.5 -147.5t56.5 -208.5h-598q-34 117 -108 165t-220 48q-375 0 -375 -359q0 -178 92 -284q90 -109 287 -109q131 0 205.5 46.5t118.5 156.5h598q-15 -268 -251.5 -412t-653.5 -139l-74 -104q75 14 129 14 q108 0 176 -47.5t68 -122.5q0 -97 -98.5 -156t-258.5 -59q-166 0 -352 63l57 107q158 -49 256 -49q54 0 86.5 23t32.5 61q0 37 -32.5 57.5t-90.5 20.5q-35 0 -98 -19l-70 51l115 160q-196 10 -316.5 43t-218.5 102q-282 200 -282 584z" />
<glyph unicode="&#xc8;" horiz-adv-x="1818" d="M133 0v1366h1546v-348h-1024v-152h848v-348h-848v-170h1088v-348h-1610zM434 1780h627l158 -262h-445z" />
<glyph unicode="&#xc9;" horiz-adv-x="1818" d="M133 0v1366h1546v-348h-1024v-152h848v-348h-848v-170h1088v-348h-1610zM666 1518l159 262h625l-338 -262h-446z" />
<glyph unicode="&#xca;" horiz-adv-x="1818" d="M133 0v1366h1546v-348h-1024v-152h848v-348h-848v-170h1088v-348h-1610zM328 1520l352 256h545l317 -256h-541l-90 86l-94 -86h-489z" />
<glyph unicode="&#xcb;" horiz-adv-x="1818" d="M133 0v1366h1546v-348h-1024v-152h848v-348h-848v-170h1088v-348h-1610zM354 1520v258h475v-258h-475zM1018 1520v258h475v-258h-475z" />
<glyph unicode="&#xcc;" horiz-adv-x="798" d="M-158 1780h627l158 -262h-445zM137 0v1366h522v-1366h-522z" />
<glyph unicode="&#xcd;" horiz-adv-x="798" d="M137 0v1366h522v-1366h-522zM197 1518l159 262h625l-338 -262h-446z" />
<glyph unicode="&#xce;" horiz-adv-x="798" d="M-168 1520l352 256h545l318 -256h-541l-90 86l-94 -86h-490zM137 0v1366h522v-1366h-522z" />
<glyph unicode="&#xcf;" horiz-adv-x="798" d="M-18 1520v258h389v-258h-389zM139 0v1366h523v-1366h-523zM457 1520v258h389v-258h-389z" />
<glyph unicode="&#xd0;" horiz-adv-x="1953" d="M10 614v185h123v567h903q265 0 402.5 -35.5t240.5 -130.5q197 -179 197 -536q0 -335 -170 -502q-70 -67 -146.5 -100.5t-194.5 -47.5t-321 -14h-911v614h-123zM655 348h252q129 0 191 9.5t104 37.5q55 35 85 108.5t30 174.5q0 100 -29.5 175.5t-83.5 113.5 q-44 32 -99 41.5t-204 9.5h-246v-219h258v-185h-258v-266z" />
<glyph unicode="&#xd1;" horiz-adv-x="1959" d="M133 0v1366h590l428 -518q76 -92 103.5 -139t101.5 -199h16q-69 196 -69 420v436h522v-1366h-574l-450 535q-62 73 -101 142t-90 189h-16q36 -108 48.5 -185t12.5 -192v-489h-522zM373 1507q53 146 165 215.5t298 69.5q57 0 94.5 -4t204.5 -27q130 -18 215 -18 q80 0 131 43h241q-20 -70 -52 -118.5t-85 -88.5q-54 -41 -124 -58.5t-181 -17.5q-81 0 -145 5t-314 30q-53 6 -92 6q-36 0 -56 -7.5t-40 -29.5h-260z" />
<glyph unicode="&#xd2;" horiz-adv-x="2013" d="M76 694q0 172 54 306t157 217q125 100 297 146t422 46q253 0 422.5 -45.5t295.5 -146.5q211 -169 211 -535q0 -370 -226.5 -548.5t-696.5 -178.5q-256 0 -427.5 45.5t-297.5 146.5q-108 88 -159.5 221t-51.5 326zM469 1780h627l157 -262h-444zM651 688q0 -385 357 -385 q172 0 262 96.5t90 282.5t-90.5 282.5t-263.5 96.5q-172 0 -263.5 -96t-91.5 -277z" />
<glyph unicode="&#xd3;" horiz-adv-x="2013" d="M76 694q0 172 54 306t157 217q125 100 297 146t422 46q253 0 422.5 -45.5t295.5 -146.5q211 -169 211 -535q0 -370 -226.5 -548.5t-696.5 -178.5q-256 0 -427.5 45.5t-297.5 146.5q-108 88 -159.5 221t-51.5 326zM651 688q0 -385 357 -385q172 0 262 96.5t90 282.5 t-90.5 282.5t-263.5 96.5q-172 0 -263.5 -96t-91.5 -277zM791 1518l159 262h625l-338 -262h-446z" />
<glyph unicode="&#xd4;" horiz-adv-x="2013" d="M76 694q0 172 54 306t157 217q125 100 297 146t422 46q253 0 422.5 -45.5t295.5 -146.5q211 -169 211 -535q0 -370 -226.5 -548.5t-696.5 -178.5q-256 0 -427.5 45.5t-297.5 146.5q-108 88 -159.5 221t-51.5 326zM426 1520l352 256h545l317 -256h-540l-90 86l-95 -86 h-489zM651 688q0 -385 357 -385q172 0 262 96.5t90 282.5t-90.5 282.5t-263.5 96.5q-172 0 -263.5 -96t-91.5 -277z" />
<glyph unicode="&#xd5;" horiz-adv-x="2013" d="M76 694q0 172 54 306t157 217q125 100 297 146t422 46q253 0 422.5 -45.5t295.5 -146.5q211 -169 211 -535q0 -370 -226.5 -548.5t-696.5 -178.5q-256 0 -427.5 45.5t-297.5 146.5q-108 88 -159.5 221t-51.5 326zM385 1507q53 146 165 215.5t298 69.5q57 0 94.5 -4 t204.5 -27q130 -18 215 -18q80 0 131 43h242q-20 -70 -52.5 -118.5t-85.5 -88.5q-54 -41 -124 -58.5t-181 -17.5q-80 0 -143.5 4.5t-314.5 30.5q-53 6 -93 6q-36 0 -56 -7.5t-40 -29.5h-260zM651 688q0 -385 357 -385q172 0 262 96.5t90 282.5t-90.5 282.5t-263.5 96.5 q-172 0 -263.5 -96t-91.5 -277z" />
<glyph unicode="&#xd6;" horiz-adv-x="2013" d="M76 694q0 172 54 306t157 217q125 100 297 146t422 46q253 0 422.5 -45.5t295.5 -146.5q211 -169 211 -535q0 -370 -226.5 -548.5t-696.5 -178.5q-256 0 -427.5 45.5t-297.5 146.5q-108 88 -159.5 221t-51.5 326zM444 1520v258h476v-258h-476zM651 688q0 -385 357 -385 q172 0 262 96.5t90 282.5t-90.5 282.5t-263.5 96.5q-172 0 -263.5 -96t-91.5 -277zM1108 1520v258h475v-258h-475z" />
<glyph unicode="&#xd7;" d="M76 479l295 291l-289 287l143 141l285 -289l291 295l149 -147l-295 -291l291 -289l-141 -143l-289 293l-293 -297z" />
<glyph unicode="&#xd8;" horiz-adv-x="1998" d="M76 676q0 205 54 336.5t175 220.5q124 93 285.5 134.5t398.5 41.5q225 0 375.5 -31.5t267.5 -103.5l158 125l121 -142l-133 -104q78 -88 110.5 -192t32.5 -267q0 -193 -48.5 -322.5t-152.5 -215.5q-123 -103 -295.5 -152t-414.5 -49q-409 0 -619 119l-190 -152l-113 150 l154 118q-91 100 -128.5 210t-37.5 276zM649 696q0 -88 15 -168l583 439q-47 51 -104.5 71.5t-147.5 20.5q-166 0 -256 -95t-90 -268zM768 375q82 -70 240 -70q161 0 251.5 95t90.5 264q0 40 -13 139z" />
<glyph unicode="&#xd9;" horiz-adv-x="1880" d="M121 575v791h522v-700q0 -193 69.5 -277t229.5 -84t228.5 83.5t68.5 277.5v700h522v-791q0 -169 -36 -274t-121 -178q-190 -166 -662 -166q-500 0 -686 186q-72 72 -103.5 173t-31.5 259zM391 1780h627l158 -262h-445z" />
<glyph unicode="&#xda;" horiz-adv-x="1880" d="M121 575v791h522v-700q0 -193 69.5 -277t229.5 -84t228.5 83.5t68.5 277.5v700h522v-791q0 -169 -36 -274t-121 -178q-190 -166 -662 -166q-500 0 -686 186q-72 72 -103.5 173t-31.5 259zM739 1518l160 262h625l-338 -262h-447z" />
<glyph unicode="&#xdb;" horiz-adv-x="1880" d="M121 575v791h522v-700q0 -193 69.5 -277t229.5 -84t228.5 83.5t68.5 277.5v700h522v-791q0 -169 -36 -274t-121 -178q-190 -166 -662 -166q-500 0 -686 186q-72 72 -103.5 173t-31.5 259zM360 1520l353 256h544l318 -256h-541l-90 86l-94 -86h-490z" />
<glyph unicode="&#xdc;" horiz-adv-x="1880" d="M121 575v791h522v-700q0 -193 69.5 -277t229.5 -84t228.5 83.5t68.5 277.5v700h522v-791q0 -169 -36 -274t-121 -178q-190 -166 -662 -166q-500 0 -686 186q-72 72 -103.5 173t-31.5 259zM393 1520v258h475v-258h-475zM1057 1520v258h475v-258h-475z" />
<glyph unicode="&#xdd;" horiz-adv-x="1744" d="M-27 1366h615l289 -506l292 506h605l-646 -1022v-344h-524v344zM678 1518l160 262h624l-338 -262h-446z" />
<glyph unicode="&#xde;" horiz-adv-x="1820" d="M133 0v1366h522v-164h498q195 0 295.5 -20t173.5 -74q73 -55 112.5 -149t39.5 -214q0 -275 -183 -383q-71 -41 -157 -55t-277 -14h-502v-293h-522zM655 623h328q138 0 172 20q59 37 59 123q0 75 -48.5 103t-180.5 28h-330v-274z" />
<glyph unicode="&#xdf;" horiz-adv-x="1740" d="M111 0v887q0 154 24.5 230t93.5 134q88 75 255 116.5t382 41.5q343 0 525 -102t182 -295q0 -100 -45.5 -154t-149.5 -80q85 -37 122 -57t65 -45q51 -46 80.5 -123.5t29.5 -165.5q0 -430 -618 -430q-187 0 -365 29v327q123 -30 226 -30q235 0 235 163q0 89 -65.5 123.5 t-231.5 34.5h-108v252h106q205 0 205 117q0 57 -55 89t-152 32q-150 0 -219 -78q-31 -35 -42 -80.5t-11 -132.5v-803h-469z" />
<glyph unicode="&#xe0;" horiz-adv-x="1712" d="M63 328q0 86 47 148.5t136 96.5q235 86 663 95q73 2 113 4t65 8t32 14t7 23q0 40 -68 66t-175 26q-173 0 -221 -68l-515 -20q26 111 75 172.5t147 103.5q165 74 485 74q501 0 651 -135q54 -50 75.5 -117t21.5 -192v-400q0 -94 8.5 -139.5t34.5 -87.5h-492l-10 92 q-118 -65 -230 -92t-268 -27q-274 0 -428 94t-154 261zM393 1372h623l129 -258h-467zM623 356q0 -86 188 -86q181 0 250 36.5t69 131.5v27q-7 -1 -21.5 -3.5t-19 -3t-15.5 -2t-17 -1.5t-18 -1t-25 -1.5t-30.5 -1t-41.5 -0.5q-187 -5 -223 -11q-45 -6 -70.5 -28.5 t-25.5 -55.5z" />
<glyph unicode="&#xe1;" horiz-adv-x="1712" d="M63 328q0 86 47 148.5t136 96.5q235 86 663 95q73 2 113 4t65 8t32 14t7 23q0 40 -68 66t-175 26q-173 0 -221 -68l-515 -20q26 111 75 172.5t147 103.5q165 74 485 74q501 0 651 -135q54 -50 75.5 -117t21.5 -192v-400q0 -94 8.5 -139.5t34.5 -87.5h-492l-10 92 q-118 -65 -230 -92t-268 -27q-274 0 -428 94t-154 261zM623 356q0 -86 188 -86q181 0 250 36.5t69 131.5v27q-7 -1 -21.5 -3.5t-19 -3t-15.5 -2t-17 -1.5t-18 -1t-25 -1.5t-30.5 -1t-41.5 -0.5q-187 -5 -223 -11q-45 -6 -70.5 -28.5t-25.5 -55.5zM659 1114l129 258h623 l-285 -258h-467z" />
<glyph unicode="&#xe2;" horiz-adv-x="1712" d="M63 328q0 86 47 148.5t136 96.5q235 86 663 95q73 2 113 4t65 8t32 14t7 23q0 40 -68 66t-175 26q-173 0 -221 -68l-515 -20q26 111 75 172.5t147 103.5q165 74 485 74q501 0 651 -135q54 -50 75.5 -117t21.5 -192v-400q0 -94 8.5 -139.5t34.5 -87.5h-492l-10 92 q-118 -65 -230 -92t-268 -27q-274 0 -428 94t-154 261zM303 1116l352 256h545l318 -256h-541l-90 88l-94 -88h-490zM623 356q0 -86 188 -86q181 0 250 36.5t69 131.5v27q-7 -1 -21.5 -3.5t-19 -3t-15.5 -2t-17 -1.5t-18 -1t-25 -1.5t-30.5 -1t-41.5 -0.5q-187 -5 -223 -11 q-45 -6 -70.5 -28.5t-25.5 -55.5z" />
<glyph unicode="&#xe3;" horiz-adv-x="1712" d="M63 328q0 86 47 148.5t136 96.5q235 86 663 95q73 2 113 4t65 8t32 14t7 23q0 40 -68 66t-175 26q-173 0 -221 -68l-515 -20q26 111 75 172.5t147 103.5q165 74 485 74q501 0 651 -135q54 -50 75.5 -117t21.5 -192v-400q0 -94 8.5 -139.5t34.5 -87.5h-492l-10 92 q-118 -65 -230 -92t-268 -27q-274 0 -428 94t-154 261zM250 1104q53 146 165 215.5t298 69.5q57 0 94.5 -4t204.5 -27q152 -19 215 -19q45 0 73.5 9.5t57.5 33.5h241q-20 -70 -52 -118t-85 -88q-54 -40 -125.5 -58t-179.5 -18q-81 0 -145 5t-314 30q-53 6 -92 6 q-35 0 -54.5 -7.5t-41.5 -29.5h-260zM623 356q0 -86 188 -86q181 0 250 36.5t69 131.5v27q-7 -1 -21.5 -3.5t-19 -3t-15.5 -2t-17 -1.5t-18 -1t-25 -1.5t-30.5 -1t-41.5 -0.5q-187 -5 -223 -11q-45 -6 -70.5 -28.5t-25.5 -55.5z" />
<glyph unicode="&#xe4;" horiz-adv-x="1712" d="M63 328q0 86 47 148.5t136 96.5q235 86 663 95q73 2 113 4t65 8t32 14t7 23q0 40 -68 66t-175 26q-173 0 -221 -68l-515 -20q26 111 75 172.5t147 103.5q165 74 485 74q501 0 651 -135q54 -50 75.5 -117t21.5 -192v-400q0 -94 8.5 -139.5t34.5 -87.5h-492l-10 92 q-118 -65 -230 -92t-268 -27q-274 0 -428 94t-154 261zM319 1157v244h472v-244h-472zM623 356q0 -86 188 -86q181 0 250 36.5t69 131.5v27q-7 -1 -21.5 -3.5t-19 -3t-15.5 -2t-17 -1.5t-18 -1t-25 -1.5t-30.5 -1t-41.5 -0.5q-187 -5 -223 -11q-45 -6 -70.5 -28.5 t-25.5 -55.5zM981 1157v244h471v-244h-471z" />
<glyph unicode="&#xe5;" horiz-adv-x="1712" d="M63 328q0 86 47 148.5t136 96.5q235 86 663 95q73 2 113 4t65 8t32 14t7 23q0 40 -68 66t-175 26q-173 0 -221 -68l-515 -20q26 111 75 172.5t147 103.5q165 74 485 74q501 0 651 -135q54 -50 75.5 -117t21.5 -192v-400q0 -94 8.5 -139.5t34.5 -87.5h-492l-10 92 q-118 -65 -230 -92t-268 -27q-274 0 -428 94t-154 261zM623 356q0 -86 188 -86q181 0 250 36.5t69 131.5v27q-7 -1 -21.5 -3.5t-19 -3t-15.5 -2t-17 -1.5t-18 -1t-25 -1.5t-30.5 -1t-41.5 -0.5q-187 -5 -223 -11q-45 -6 -70.5 -28.5t-25.5 -55.5zM635 1352q0 79 70 129.5 t180 50.5q113 0 181.5 -50.5t68.5 -133.5q0 -86 -68 -137.5t-182 -51.5q-116 0 -183 52t-67 141zM813 1350q0 -31 21.5 -52.5t50.5 -21.5t50 21.5t21 50.5q0 30 -20.5 51.5t-48.5 21.5q-31 0 -52.5 -21t-21.5 -50z" />
<glyph unicode="&#xe6;" horiz-adv-x="2666" d="M70 334q0 177 182 250q190 75 473 75h379q-2 65 -21 89q-46 61 -196 61q-171 0 -219 -68l-514 -20q26 110 75 171.5t146 104.5q75 34 199.5 54t261.5 20q328 0 516 -102q112 55 227.5 78.5t278.5 23.5q228 0 397.5 -65t247.5 -183q48 -72 70 -168t28 -256h-999 q12 -49 28 -75t45 -45q71 -46 178 -46q134 0 203 66h541q-45 -146 -189 -231q-102 -59 -223 -85t-297 -26q-400 0 -600 102q-182 -102 -514 -102q-338 0 -534 100q-81 41 -125.5 113.5t-44.5 163.5zM592 338q0 -44 49 -64t158 -20q81 0 150 13.5t100 35.5q29 22 41.5 50 t13.5 79h-291q-116 0 -168.5 -22.5t-52.5 -71.5zM1599 659h474q-29 71 -81 101.5t-143 30.5q-101 0 -159.5 -31t-90.5 -101z" />
<glyph unicode="&#xe7;" horiz-adv-x="1716" d="M66 520q0 148 61 263.5t168 172.5q206 113 588 113q437 0 639 -178q58 -49 90 -113.5t47 -161.5h-541q-61 152 -252 152q-131 0 -204.5 -67.5t-73.5 -188.5t75.5 -191.5t206.5 -70.5q112 0 174.5 47.5t88.5 151.5h526q-22 -254 -204 -372.5t-554 -121.5l-57 -88 q55 10 106 10q92 0 148.5 -43t56.5 -113q0 -85 -81 -140.5t-204 -55.5q-163 0 -311 57l47 99q136 -46 221 -46q47 0 73 19.5t26 56.5q0 76 -97 76q-32 0 -92 -18l-59 47l96 143q-290 22 -440 90q-138 63 -201 184q-67 125 -67 287z" />
<glyph unicode="&#xe8;" horiz-adv-x="1675" d="M66 522q0 128 46 232t128 161q103 73 261 113.5t343 40.5q252 0 432.5 -71.5t255.5 -200.5q40 -70 57.5 -159t20.5 -251h-1026q15 -49 33 -74.5t51 -44.5q77 -41 209 -41q78 0 119.5 15.5t78.5 56.5h535q-26 -93 -68 -148t-119 -96q-186 -98 -524 -98q-412 0 -616 121 q-101 61 -159 180t-58 264zM373 1372h622l129 -258h-467zM588 647h516q-46 144 -256 144q-209 0 -260 -144z" />
<glyph unicode="&#xe9;" horiz-adv-x="1675" d="M66 522q0 128 46 232t128 161q103 73 261 113.5t343 40.5q252 0 432.5 -71.5t255.5 -200.5q40 -70 57.5 -159t20.5 -251h-1026q15 -49 33 -74.5t51 -44.5q77 -41 209 -41q78 0 119.5 15.5t78.5 56.5h535q-26 -93 -68 -148t-119 -96q-186 -98 -524 -98q-412 0 -616 121 q-101 61 -159 180t-58 264zM588 647h516q-46 144 -256 144q-209 0 -260 -144zM633 1114l129 258h622l-284 -258h-467z" />
<glyph unicode="&#xea;" horiz-adv-x="1675" d="M66 522q0 128 46 232t128 161q103 73 261 113.5t343 40.5q252 0 432.5 -71.5t255.5 -200.5q40 -70 57.5 -159t20.5 -251h-1026q15 -49 33 -74.5t51 -44.5q77 -41 209 -41q78 0 119.5 15.5t78.5 56.5h535q-26 -93 -68 -148t-119 -96q-186 -98 -524 -98q-412 0 -616 121 q-101 61 -159 180t-58 264zM279 1116l352 256h545l317 -256h-541l-90 88l-94 -88h-489zM588 647h516q-46 144 -256 144q-209 0 -260 -144z" />
<glyph unicode="&#xeb;" horiz-adv-x="1675" d="M66 522q0 128 46 232t128 161q103 73 261 113.5t343 40.5q252 0 432.5 -71.5t255.5 -200.5q40 -70 57.5 -159t20.5 -251h-1026q15 -49 33 -74.5t51 -44.5q77 -41 209 -41q78 0 119.5 15.5t78.5 56.5h535q-26 -93 -68 -148t-119 -96q-186 -98 -524 -98q-412 0 -616 121 q-101 61 -159 180t-58 264zM293 1157v244h471v-244h-471zM588 647h516q-46 144 -256 144q-209 0 -260 -144zM954 1157v244h471v-244h-471z" />
<glyph unicode="&#xec;" horiz-adv-x="690" d="M-174 1372h623l129 -258h-467zM111 0v1026h469v-1026h-469z" />
<glyph unicode="&#xed;" horiz-adv-x="690" d="M111 0v1026h469v-1026h-469zM127 1114l129 258h623l-285 -258h-467z" />
<glyph unicode="&#xee;" horiz-adv-x="690" d="M-221 1116l352 256h545l317 -256h-540l-91 88l-94 -88h-489zM111 0v1026h469v-1026h-469z" />
<glyph unicode="&#xef;" horiz-adv-x="690" d="M-70 1122v244h385v-244h-385zM111 0v1026h469v-1026h-469zM401 1122v244h385v-244h-385z" />
<glyph unicode="&#xf0;" horiz-adv-x="1734" d="M66 1257l84 140q45 4 104 4q27 0 180 -6l275 180l73 -115l-131 -86q381 -55 606 -190q201 -122 306.5 -291t105.5 -373q0 -180 -76 -303.5t-221 -179.5q-209 -82 -502 -82q-297 0 -503 82q-143 56 -220 179.5t-77 297.5q0 216 111.5 344t342.5 178q132 29 258 29 q41 0 70 -4q-161 110 -393 153l-266 -176l-74 115l139 92q-61 7 -192 12zM592 518q0 -121 76 -193.5t202 -72.5q123 0 200 72.5t77 189.5q0 115 -77 187.5t-200 72.5t-200.5 -71.5t-77.5 -184.5z" />
<glyph unicode="&#xf1;" horiz-adv-x="1652" d="M111 0v1026h469v-98q120 69 225.5 97t247.5 28q256 0 377 -109q76 -67 100 -180q12 -54 12 -254v-510h-469v424q0 160 -35 223q-46 78 -188 78q-170 0 -236 -117q-34 -61 -34 -184v-424h-469zM219 1104q53 146 165 215.5t298 69.5q57 0 94.5 -4t204.5 -27 q152 -19 215 -19q45 0 73.5 9.5t57.5 33.5h242q-20 -70 -52 -118t-85 -88q-103 -76 -306 -76q-80 0 -143.5 4.5t-314.5 30.5q-52 6 -93 6q-35 0 -54.5 -7.5t-41.5 -29.5h-260z" />
<glyph unicode="&#xf2;" horiz-adv-x="1730" d="M66 524q0 166 78.5 289.5t217.5 177.5q204 80 504 80q298 0 502 -80q142 -55 219.5 -179.5t77.5 -297.5t-77 -296t-220 -179q-206 -82 -500 -82q-297 0 -506 82q-146 57 -221 180t-75 305zM387 1372h623l129 -258h-467zM588 518q0 -120 76 -192t202 -72q123 0 200 72.5 t77 187.5t-77 187.5t-200 72.5t-200.5 -71t-77.5 -185z" />
<glyph unicode="&#xf3;" horiz-adv-x="1730" d="M66 524q0 166 78.5 289.5t217.5 177.5q204 80 504 80q298 0 502 -80q142 -55 219.5 -179.5t77.5 -297.5t-77 -296t-220 -179q-206 -82 -500 -82q-297 0 -506 82q-146 57 -221 180t-75 305zM588 518q0 -120 76 -192t202 -72q123 0 200 72.5t77 187.5t-77 187.5t-200 72.5 t-200.5 -71t-77.5 -185zM647 1114l129 258h623l-285 -258h-467z" />
<glyph unicode="&#xf4;" horiz-adv-x="1730" d="M66 524q0 166 78.5 289.5t217.5 177.5q204 80 504 80q298 0 502 -80q142 -55 219.5 -179.5t77.5 -297.5t-77 -296t-220 -179q-206 -82 -500 -82q-297 0 -506 82q-146 57 -221 180t-75 305zM305 1116l352 256h545l318 -256h-541l-90 88l-94 -88h-490zM588 518 q0 -120 76 -192t202 -72q123 0 200 72.5t77 187.5t-77 187.5t-200 72.5t-200.5 -71t-77.5 -185z" />
<glyph unicode="&#xf5;" horiz-adv-x="1730" d="M66 524q0 166 78.5 289.5t217.5 177.5q204 80 504 80q298 0 502 -80q142 -55 219.5 -179.5t77.5 -297.5t-77 -296t-220 -179q-206 -82 -500 -82q-297 0 -506 82q-146 57 -221 180t-75 305zM238 1104q53 147 164.5 216t297.5 69q57 0 94.5 -4t204.5 -27q152 -19 215 -19 q45 0 74 9.5t58 33.5h241q-20 -70 -52 -118t-85 -88q-54 -40 -125.5 -58t-179.5 -18q-81 0 -145 5t-314 30q-52 6 -92 6q-35 0 -54.5 -7.5t-41.5 -29.5h-260zM588 518q0 -120 76 -192t202 -72q123 0 200 72.5t77 187.5t-77 187.5t-200 72.5t-200.5 -71t-77.5 -185z" />
<glyph unicode="&#xf6;" horiz-adv-x="1730" d="M66 524q0 166 78.5 289.5t217.5 177.5q204 80 504 80q298 0 502 -80q142 -55 219.5 -179.5t77.5 -297.5t-77 -296t-220 -179q-206 -82 -500 -82q-297 0 -506 82q-146 57 -221 180t-75 305zM326 1157v244h471v-244h-471zM588 518q0 -120 76 -192t202 -72q123 0 200 72.5 t77 187.5t-77 187.5t-200 72.5t-200.5 -71t-77.5 -185zM987 1157v244h471v-244h-471z" />
<glyph unicode="&#xf7;" d="M-4 666v200h1032v-200h-1032zM367 432q0 60 43 103t104 43q59 0 101 -43t42 -103t-42.5 -102.5t-102.5 -42.5t-102.5 42.5t-42.5 102.5zM367 1100q0 60 43 102.5t104 42.5q59 0 101 -42.5t42 -102.5t-42.5 -103t-102.5 -43t-102.5 43t-42.5 103z" />
<glyph unicode="&#xf8;" horiz-adv-x="1726" d="M61 29l146 104q-141 135 -141 389q0 136 45.5 239t132.5 163q213 147 620 147q322 0 514 -86l183 129l81 -115l-133 -96q80 -72 117 -165t37 -224q0 -126 -40.5 -228.5t-113.5 -160.5q-100 -80 -270 -124t-381 -44q-325 0 -528 90l-185 -135zM586 518q0 -41 14 -90 l428 293q-41 29 -78 41t-88 12q-121 0 -198.5 -71.5t-77.5 -184.5zM682 313q85 -59 184 -59q120 0 198.5 71.5t78.5 180.5q0 43 -23 108z" />
<glyph unicode="&#xf9;" horiz-adv-x="1652" d="M111 514v512h469v-424q0 -162 34 -223q22 -37 72 -57.5t117 -20.5q171 0 235 115q35 60 35 186v424h469v-1026h-469v98q-122 -69 -227 -97t-246 -28q-259 0 -377 109q-76 67 -100 180q-12 68 -12 252zM322 1372h622l129 -258h-467z" />
<glyph unicode="&#xfa;" horiz-adv-x="1652" d="M111 514v512h469v-424q0 -162 34 -223q22 -37 72 -57.5t117 -20.5q171 0 235 115q35 60 35 186v424h469v-1026h-469v98q-122 -69 -227 -97t-246 -28q-259 0 -377 109q-76 67 -100 180q-12 68 -12 252zM608 1114l129 258h623l-285 -258h-467z" />
<glyph unicode="&#xfb;" horiz-adv-x="1652" d="M111 514v512h469v-424q0 -162 34 -223q22 -37 72 -57.5t117 -20.5q171 0 235 115q35 60 35 186v424h469v-1026h-469v98q-122 -69 -227 -97t-246 -28q-259 0 -377 109q-76 67 -100 180q-12 68 -12 252zM246 1116l352 256h545l317 -256h-540l-91 88l-94 -88h-489z" />
<glyph unicode="&#xfc;" horiz-adv-x="1652" d="M111 514v512h469v-424q0 -162 34 -223q22 -37 72 -57.5t117 -20.5q171 0 235 115q35 60 35 186v424h469v-1026h-469v98q-122 -69 -227 -97t-246 -28q-259 0 -377 109q-76 67 -100 180q-12 68 -12 252zM281 1157v244h471v-244h-471zM942 1157v244h471v-244h-471z" />
<glyph unicode="&#xfd;" horiz-adv-x="1476" d="M-14 1026h526l258 -586l234 586h485l-295 -731q-160 -395 -268 -500q-122 -119 -434 -119q-184 0 -379 39v346q121 -59 227 -59q58 0 125 18zM539 1114l129 258h622l-284 -258h-467z" />
<glyph unicode="&#xfe;" horiz-adv-x="1726" d="M111 -297v1663h469v-436q96 69 189.5 96t240.5 27q270 0 438 -117q102 -72 156.5 -181t54.5 -241q0 -124 -48 -232.5t-134 -177.5q-78 -63 -201.5 -97t-274.5 -34q-137 0 -236 25t-185 82v-377h-469zM578 518q0 -215 280 -215q137 0 208 53.5t71 157.5t-71 157.5 t-208 53.5t-208.5 -53t-71.5 -154z" />
<glyph unicode="&#xff;" horiz-adv-x="1476" d="M-14 1026h526l258 -586l234 586h485l-295 -731q-160 -395 -268 -500q-122 -119 -434 -119q-184 0 -379 39v346q121 -59 227 -59q58 0 125 18zM193 1157v244h471v-244h-471zM854 1157v244h471v-244h-471z" />
<glyph unicode="&#x152;" horiz-adv-x="3041" d="M76 694q0 395 270 566q129 82 283 116.5t385 34.5q216 0 514 -31q140 -14 317 -14h1053v-348h-1008v-152h846v-348h-846v-170h1076v-348h-1121q-103 0 -167.5 -4t-231.5 -19q-245 -20 -430 -20q-229 0 -383.5 31.5t-272.5 103.5q-136 83 -210 239.5t-74 362.5zM651 686 q0 -192 89 -286.5t272 -94.5q356 0 356 375q0 381 -358 381q-359 0 -359 -375z" />
<glyph unicode="&#x153;" horiz-adv-x="2701" d="M66 512q0 158 63 276.5t180 178.5q204 104 563 104q311 0 510 -94q119 51 235 72.5t275 21.5q233 0 388.5 -57.5t246.5 -177.5q54 -73 78 -167t31 -274h-1026q31 -86 98 -125t186 -39q69 0 109 13t74 45h555q-51 -149 -176 -217q-206 -117 -558 -117q-331 0 -516 111 q-107 -58 -180 -74q-161 -37 -350 -37q-169 0 -323.5 33t-252.5 90q-98 59 -154 174t-56 260zM590 514q0 -128 70 -196t202 -68q128 0 198 68t70 194t-71 195t-201 69q-126 0 -197 -69.5t-71 -192.5zM1618 655h483q-35 77 -88.5 107.5t-152.5 30.5q-95 0 -152.5 -33 t-89.5 -105z" />
<glyph unicode="&#x178;" horiz-adv-x="1744" d="M-27 1366h615l289 -506l292 506h605l-646 -1022v-344h-524v344zM311 1520v258h475v-258h-475zM975 1520v258h475v-258h-475z" />
<glyph unicode="&#x2c6;" d="M-96 1116l352 256h545l317 -256h-540l-91 88l-94 -88h-489z" />
<glyph unicode="&#x2dc;" d="M-164 1104q53 146 165 215.5t298 69.5q57 0 94.5 -4t204.5 -27q152 -19 215 -19q45 0 73.5 9.5t57.5 33.5h242q-20 -70 -52 -118t-85 -88q-103 -76 -306 -76q-81 0 -144 4.5t-314 30.5q-52 6 -92 6q-35 0 -55 -7.5t-42 -29.5h-260z" />
<glyph unicode="&#x2000;" horiz-adv-x="910" />
<glyph unicode="&#x2001;" horiz-adv-x="1821" />
<glyph unicode="&#x2002;" horiz-adv-x="910" />
<glyph unicode="&#x2003;" horiz-adv-x="1821" />
<glyph unicode="&#x2004;" horiz-adv-x="607" />
<glyph unicode="&#x2005;" horiz-adv-x="455" />
<glyph unicode="&#x2006;" horiz-adv-x="303" />
<glyph unicode="&#x2007;" horiz-adv-x="303" />
<glyph unicode="&#x2008;" horiz-adv-x="227" />
<glyph unicode="&#x2009;" horiz-adv-x="364" />
<glyph unicode="&#x200a;" horiz-adv-x="101" />
<glyph unicode="&#x2010;" horiz-adv-x="790" d="M0 319v416h791v-416h-791z" />
<glyph unicode="&#x2011;" horiz-adv-x="790" d="M0 319v416h791v-416h-791z" />
<glyph unicode="&#x2012;" horiz-adv-x="790" d="M0 319v416h791v-416h-791z" />
<glyph unicode="&#x2013;" horiz-adv-x="1646" d="M111 319v416h1425v-416h-1425z" />
<glyph unicode="&#x2014;" horiz-adv-x="2373" d="M0 319v416h2374v-416h-2374z" />
<glyph unicode="&#x2018;" horiz-adv-x="604" d="M111 834v235q0 141 71.5 207t278.5 117l33 -121q-55 -13 -80 -34.5t-33 -61.5h113v-342h-383z" />
<glyph unicode="&#x2019;" horiz-adv-x="604" d="M111 928q55 13 79.5 34.5t32.5 61.5h-112v342h383v-236q0 -97 -30.5 -154t-104 -95.5t-216.5 -73.5z" />
<glyph unicode="&#x201a;" horiz-adv-x="665" d="M111 0v395h444v-340q0 -101 -35.5 -161t-126.5 -109q-97 -54 -243 -78l-39 148q86 13 125.5 47.5t44.5 97.5h-170z" />
<glyph unicode="&#x201c;" horiz-adv-x="1099" d="M111 834v235q0 141 71.5 207t278.5 117l33 -121q-55 -13 -80 -34.5t-33 -61.5h113v-342h-383zM606 834v235q0 141 71.5 207t278.5 117l33 -121q-55 -13 -79.5 -34.5t-32.5 -61.5h112v-342h-383z" />
<glyph unicode="&#x201d;" horiz-adv-x="1099" d="M111 928q54 14 79.5 35t32.5 61h-112v342h383v-236q0 -141 -71.5 -206.5t-279.5 -116.5zM606 928q54 14 80 35.5t33 60.5h-113v342h383v-236q0 -141 -71.5 -206.5t-278.5 -116.5z" />
<glyph unicode="&#x201e;" horiz-adv-x="1099" d="M111 0v342h383v-236q0 -141 -71.5 -206.5t-279.5 -116.5l-32 121q54 14 79.5 35t32.5 61h-112zM606 0v342h383v-236q0 -141 -71.5 -206.5t-278.5 -116.5l-33 121q54 14 80 35.5t33 60.5h-113z" />
<glyph unicode="&#x2022;" horiz-adv-x="1366" d="M401 692q0 120 83.5 202.5t205.5 82.5q114 0 196.5 -83.5t82.5 -199.5q0 -118 -83 -201t-200 -83t-201 82.5t-84 199.5z" />
<glyph unicode="&#x2026;" horiz-adv-x="1998" d="M111 0v428h444v-428h-444zM776 0v428h445v-428h-445zM1444 0v428h444v-428h-444z" />
<glyph unicode="&#x202f;" horiz-adv-x="364" />
<glyph unicode="&#x2039;" horiz-adv-x="675" d="M74 524l205 402h311l-201 -402l201 -399h-311z" />
<glyph unicode="&#x203a;" horiz-adv-x="675" d="M88 125l201 401l-201 400h311l205 -400l-205 -401h-311z" />
<glyph unicode="&#x205f;" horiz-adv-x="455" />
<glyph unicode="&#x20ac;" horiz-adv-x="2183" d="M63 496l56 141h123q-2 25 -2 51v39h-177l56 141h139q35 165 131 275q224 266 799 266q548 0 782 -225q64 -60 98.5 -139t49.5 -201h-600q-32 117 -107.5 167t-220.5 50q-136 0 -220.5 -47t-125.5 -146h407l-53 -141h-383v-25q0 -38 2 -65h342l-55 -141h-248 q83 -191 334 -191q76 0 139.5 18t100.5 50q25 22 44.5 51.5t43.5 85.5h600q-15 -149 -69 -240.5t-169 -163.5q-126 -80 -287 -114.5t-405 -34.5q-198 0 -323 20t-234 70q-147 66 -242 181t-129 268h-197z" />
<glyph unicode="&#x2122;" horiz-adv-x="2562" d="M23 1147v219h989v-219h-328v-600h-340v600h-321zM1126 547v819h547l88 -231q9 -25 18.5 -59.5t16 -67.5t6.5 -50q2 80 39 177l86 231h543v-819h-340v526q-11 -55 -27 -94l-164 -432h-278l-168 432l-27 98v-530h-340z" />
<glyph unicode="&#xe000;" d="M0 0v1024h1024v-1024h-1024z" />
</font>
</defs>
</svg>
